<?xml version="1.0" encoding="UTF-8"?>
<svg id="_图层_1" data-name="图层 1" xmlns="http://www.w3.org/2000/svg" viewBox="0 0 1118.17 1442.04">
  <path d="M434.17,32.04c25.62,9.9,47.3,20.23,68.95,38.05,2.55,2.09,14.65,16.41,17.04,13.94,1.3-1.35-6.88-31.82-8.47-36.51-5.96-17.61-17.43-30.23-23.51-44.5-.5-1.17-.36-3.38.97-2.96,3.68,1.16,14.8,8.51,18.85,11.15,37.51,24.49,62.09,63.46,64.18,108.84,29.24-29.66,69.85-47.59,111.97-39.98l-24.71,10.26c-15.65,6.85-29.36,16.78-42.37,27.63-.68,3.54-15.27,15.72-12.9,18.09.29.29,5.39-2.84,7.5-3.48,52.35-15.76,104.1,4.07,138.47,44.49-11.61.08-23.49-4.22-35-5.01-12.76-.87-23.66,1.46-35.98,2.04-3.88.18-3.2-.43-3.02,3.94,45,13.61,78.34,56.72,92.54,100.49,1.14,3.52,6.81,22.06,5.46,23.52-1.89,2.05-31.5-20.3-33.99-17.97-.85.8,9.02,15.22,9.84,21.15,1.82,13.31,1.08,39.88.25,53.93-1.91,32.45-11.23,64.55-14.08,96.9,28.16-12.14,45.46,13.48,54.07,36.92,14.65,39.9,12.37,73.07.92,113.08-5,17.49-14.86,55.36-22.2,69.8-5.94,11.7-17.75,19-30.32,21.72-2.35.51-8.15.21-8.48.48-.5.42-.19,10.58,0,13,2.47,31.53,10.57,63.63,3.03,95.03-8.16,34-31.24,72.15-38.14,103.84-4.08,18.74,4.5,15.62,15.14,25.1,27.31,24.32,57.6,63.46,75.42,95.12,54.58,31.04,108.25,63.84,163.2,94.26,30.2,16.72,66.03,31.86,94.7,49.3,31.97,19.45,39.58,69.62,47.69,104.31,12.59,53.87,21.62,108.94,26.97,164.03h-12l-4.22-1.25c-7.98-61.46-19-123.3-33.29-185.74-.97-4.23-17.04-60.71-24.22-60.67-14.32.08-85.31,225.38-79.35,232.92-1.33,5.31-4.07,10.11-6.91,14.73h-8c-.56-1.96-1.04-3.93-1.25-5.93s-.38-3.87.04-5.63c6.41-27.13,13.1-54.37,20.49-81.26,15.41-56.03,32.52-114.13,63.88-162.87-78.9-38.97-156.03-81.28-231.39-126.92l51.74,141.31-1.74,4.21c-26.65,12.01-54.31,22.42-82.98,31.22l80.46,54.9c3.46,3.06,5.57,8.39,4.03,12.86l-62.08,136.37-5.19,1.75h-16l-2.82-3.38,63.28-133.73c-27.88-21.4-56.98-41.94-87.3-61.62-17.95-13.2-3.82-21.39,11.78-26.46,24.16-7.42,48.18-15.16,72.08-23.21l-.11-7.67c-13.8-37.41-27.85-74.71-42.17-111.92-11.8-30.68-24.18-55.35-44.05-80.88-3.55-4.56-39.42-46.09-40.49-43.05-.43,1.22,1.73,16.26,2.24,19.6,15.15,55.34,6.2,113.03-3.97,168.45-17.09,93.19-37.66,187.64-58.09,280.97-1.74,7.97-5.05,15.5-8.38,22.91h-14l-3.64-2.17,51.32-247.17c-83.06,60.66-214.48,67.85-272.92-28.86-9.24,89.29-13.09,181.69-13.99,271.84l-2.78,6.36h-12c-.98-2.3-1.89-4.63-2.54-7.02s-1.22-4.67-1.27-7c-.54-25.63-.84-51.47-.51-77.11.8-61.32,1.79-137.6,12.57-197.27.89-4.91,3.2-9.37,5.75-13.6,1-3.39-.06-6.23-2.85-8.6,4.97-35.35,13.21-69.42,24.73-102.2.1-2.87-4.66-25.49-6.07-27.22-5.38-6.61-83.99,116.12-88.67,128.05l-7.13,3.97,2.52,3.51c-14.71,22.1-28.63,44.68-41.76,67.75l60.84,28.74c10.51,8.13,6.76,17.03-11.26,26.68l-79.95,50.61,28.97,127.51-3.37,3.21h-12l-4.28-.91c-10.66-44.48-21.09-89.04-31.31-133.65l2.13-5.71c27.68-20.15,56.15-39.26,85.42-57.32l-50.96-23.26c-6.75-3.11-11.72-8.4-7.7-15.79l61.68-103.77c-61.78,41.22-125.93,78.13-192.46,110.74l21.24,226.88-3.76,2.79h-6l-4.11-.99-20.88-216.26c-14.92-2.43-61.55,198.08-63.02,209.65l-3.98,7.6h-14c9.08-47.69,19.37-95.41,33-142,6.14-20.98,22.18-78.1,36.19-91.81,9.1-8.89,28.84-14.8,40.85-21.15,70.93-37.49,138.13-81.32,205.85-124.15,14.29-17.96,25.91-37.83,40.15-55.85,3.93-4.97,23.28-24.42,23.26-28.03-.01-1.96-13.26-33.54-15.25-36.06-5.73-7.25-22.31-14.97-30.08-21.92-18.88-16.9-32.57-49.4-43.7-72.3-2.02-4.15-11.06-27.78-12.3-28.72-1.69-1.28-17.77,12.38-23.42,13.56-6.01,1.25-14.56.89-20.59-.52-12.14-2.85-55.38-34.75-67.8-44.2-29.96-22.78-47.07-49.62-55.59-86.41-6.77-29.24-10.68-66.32,25.41-75.41-22.19-32.35-47.87-64.12-68.83-97.17-3.07-4.84-13.28-20.54-13.3-24.77-.01-2.71,3.27-9.93,2.13-11.06-4.69-4.65-32.98,22.19-39.03,23.96-4.85,1.42-2.33-3.64-2.96-5.97-1.77-16.07-1.77-32.07,0-48,2.1-43.95,22.27-91.69,47.98-127.03,2.57-6.48-8.51.21-9.98,1.03-5.36,2.4-8.36-4.34-4-8l.68-5.04c6.46-4.36,40.64-24.02,45.66-16.45,1.13,1.7,1.87,3.88,1.18,5.88-38.23,50.63-68.56,113.26-66.69,175.92,14.45-9.59,29.5-18.19,45.15-25.81,5.93-3.37,11.46-2.8,11.3,4.89-6.75,10.8-11.89,22.21-15.4,34.21,8.86,14.82,18.56,29.07,29.11,42.76l1,5.65,3.67-.22c.99-13,33.42-51.26,42.12-50,3.36.49,5.41,6.22,2.19,8.93-8.73,7.93-40.91,43.03-34.82,56.09,1.34-7,23.05-49.26,32.82-50.68,4.22-.61,5.28,1.61,6.73,5.31-11.88,19.9-21.46,40.48-28.72,61.75l32.02,43.73c12.14-4.01,24.94-2.58,38.4,4.28-15.49-34.66-16.25-68.86-10.41-106.41l-.53-9.98c-14.93-21.14-25.58-43.87-31.95-68.2-18.26,26.38-36.4,54.96-44.49,86.64l-5.03,4.75c-1.64.81-4.34,1.56-4.82.59-10.44-21.07,33.63-94.81,52.26-110.39l.71-10.8c-5.33,8.75-45.94,52.99-52.58,48.49-4.33-2.94-5.94-5.48-2.25-9.77,19.93-18.18,37.73-38.14,53.4-59.89-17.48,18.08-35.38,34.69-56.11,49.16-7.23,5.05-21.65,14.89-19.85-.53,38.72-28.71,70.33-63.3,99.47-101.78l7.75-3.07,8-12c-5.17-3.37-1.98-8.93,4-8-2.58-10.16,14.07-13.72,23.25-14.16,2.05-3.6,5.86-2.1,6.75,2.16l-1.38,4.99c-25.72,12.72-41.93,52.3-49.23,78.69-12.86,46.51,1.89,72.36,25.44,109.87,4,6.69,6.05,13.55,4.74,21.34-3.49,21.28-5.95,43.66-3.41,65.37.71,6.07,13.95,46.62,16.97,49.94,8.09,8.88,25.37,6.18,34.31-.45,3.21-2.38,24.26-26.17,25.99-29.56,4.7-30.73,25.35-51.7,55.79-58.53,32.46-7.28,64.28-6.51,81.45,26.25,12.31,5.45,23.09,13.08,33.54,21.76,3.44-4.51,6.71-5.74,9.78-3.68l-.02-4.48c11.36-6.1,23.66-9.03,36.33-10.45-3.42-7.93-6.03-16.18-7.81-24.74l3.5-3.34c-6.64-1.92-6.13-26.9,0-30-6.73-.69-2.29-20.44,4-21,3.7-1.84,5.74-.63,6.1,3.29l.09,39.99c5.48,56.28,26.67,37.29,24.37-4.78,5.02-50.02,64.25-85.55,105.44-50.51l4.72-.6,11.33,14.31c14.76,1.02,28.32,5.69,41.81,11.28-11.9-63.89-27.83-127.53-47.51-189.57-18.05-49.52-61.31-81.08-107.79-99.16-18.08,22.26-42.75,39.85-66.92,55.72h-7.64s-2,.01-2,.01c-5.23-1.83-4.57-4.49,2-8-2.69-2.49-1.51-2.94,2-2,.63-5.12,6.22-13.44,12-12l5.8-3.74c2.74-4.47,5.47-5.89,8.2-4.26,15.25-25.29,30.91-51.86,37.8-81.47,3.1-4.66,6.9-4.17,6.2,1.47l2.88,5.98c-11.19,36.24-4.69,31.61,7.09.53,14.46-38.16,10.19-79.14-10.08-114.34-15.38-26.71-12.55-16.55-6.31,3.51,3.4,10.17,3.55,18.95.42,26.32,3.02,6.99,5.91,27.29-6.01,20.42-24.88-26.82-53.7-49.34-86.93-63.63l-1.05-4.8c-2.39-3.01-5.09-8.11-4-12Z" style="fill: #0d142c;"/>
  <path d="M376.17,1442.04c.63-27.64-.81-55.44-.09-83.09,1.4-53.87,5.12-108.31,10.09-161.91,1.32-14.18.74-28.92,4.01-43,6.92,6.83,10.66,16.42,16.95,24.03,67.23,81.25,189.96,65.74,265.01,3.97l-53.98,260h-242Z" style="fill: #224750;"/>
  <path d="M786.17,1442.04l64.2-141.03-2.22-5.97-87.97-60.01c24.93-11.45,53.47-16.62,78.52-27.47,3.03-1.31,10.42-3.73,11.3-6.82l-55.81-150.7c80.53,45.95,159.32,95.68,243.98,134.03,1.35,1.9-6.63,11.53-8.34,14.63-40.61,73.44-59.14,162.52-79.65,243.35h-164Z" style="fill: #484b51;"/>
  <path d="M632.17,1442.04c15.1-82.94,35.75-164.76,51.39-247.61,13.35-70.74,34.94-154.36,15.14-223.92l-3.51-30.49c7.36,4.19,14.26,11.8,20.02,17.98,31.46,33.74,48.54,54.55,66.48,97.52,18.89,45.24,34.82,91.88,52.44,137.64.88,4.23-1.01,2.25-2.8,3.04-26.26,11.61-60.3,16.87-85.17,28.82-7.34,3.52-10.69,5.78-4.02,12.07,12.28,11.59,92.58,60.56,93.7,66.2l-65.66,138.76h-138Z" style="fill: #484b50;"/>
  <path d="M122.17,1442.04l-21.69-231.71c72.78-33.56,139.82-78.03,207.67-120.29l-70.18,119c0,1.24.05,2.5.45,3.69,1.75,5.15,49.2,23.85,57.84,28.31,1.59.82,5.54.65,3.9,3.98-2.2,4.48-67.37,42.55-77.82,50.19-4.23,3.09-10.91,7.08-11.86,12.3l31.69,134.53h-120Z" style="fill: #373944;"/>
  <path d="M378.17,1140.04c-8.3,62.8-12.44,133.75-14.09,196.91-.91,34.97.86,70.12.09,105.09h-110l-30.17-132.75c11.69-8.99,96.06-57.35,97.94-64.6.83-3.19-.13-5.02-3.03-6.41-6.99-5.63-63.92-27.86-64.69-31.37-.91-4.16,38.45-64,43.95-72.88l4.65-3.63c20.63-1.45,41.27-2.63,61.93-3.53,10.8.31,15.31,1.78,13.42,13.16Z" style="fill: #494d52;"/>
  <path d="M1106.17,1442.04h-148c10.49-56.83,26.35-114.67,45.96-169.04,4.28-11.87,30.58-81.04,39.26-82.86,8.03-1.69,19.72,31.44,21.78,37.91,13.05,40.99,19.34,85.54,28.39,127.61l12.61,86.39Z" style="fill: #494d52;"/>
  <path d="M116.17,1442.04H24.17c7.92-48.38,19.5-96.59,33.46-143.54,8.24-27.71,16.15-64.2,36.52-84.46l22.02,228Z" style="fill: #363944;"/>
  <path d="M402.17,22.04c5.79,1.13,3.83,9.84-2,10l-7.5,2.3c-18.76-4.28-38.07-6.79-57.29-5.2,19.11,13.36,38.86,25.05,59.24,35.07,6.7,4.93,7.88,8.88,3.55,11.84l-6.9,1.28c-70.42-29.15-138.68,20.06-187.73,67.08-5.18,4.32-11.44,9.42-17.37,11.64l1.59,4.03-15.48,14.1c-21.67,19.24,33.18,13.66,41.46,5.82,28.95-13.93,57.88-26.45,91.31-24.4,13.82.85,35.12,3.22,43.12,14.45,4.5,4.17,10.13,6.5,16,8,12.33-.74,26.51,15.87,34.71,25.56,21.94,25.96,28.05,50,33.1,82.16,39.74-27.36,53.13-81.99,46.51-128.58l3.68-5.15c-.21-4.27-1.39-8.52-4-12-6.72-1.21-16.79-23.87-10-28-1.55-2.87-1.55-4.87,0-6,15.81,10.76,23.15,39.12,25.82,58.33,4.19,30.18-3.44,82.13-27.13,104.02-.42.39-1.47.12-2.68-.35-1.9,2.06-1.23,3.39,2,4l-2,8-8,6c-2.57,9.79-19.91,16.29-29.73,19.66-6.08,2.09-23.83,2.94-26.27-3.66-4.98-.92-10.11-1.37-15.38-1.35l-.62-2.65c-5.47-1.65-6.38-4.12-2.23-8.37.26-1.28-25.18-6.49-19.79,3.86-6.37,1.2-13.03,1.37-19.98.51-1.58,5.78-11.83,5.23-14,0-7.28,3.79-11.78.68-6-6,.99-10.6,26.68-19.95,34-12,4.32-1.62,8.98-1.62,14,0,2.76-7.03,12.37-2.51,16,2,7.44-5.5,19.18,6.01,25.24,12.11l2.76-.11c-2.84-4.99,1.72-6.22,6-4-1.68-3.18-2.35-5.84-2-8-21.69-93.55-111.94-135.8-194.7-83.94l-7.3-.06c-35.67,23.72-76.76,5.19-80.18-38.02-22.36,59.53,8.53,124.37,75.33,129.65l4.86,4.37c6.78,3.85,14.87,2.34,22,0l1.86-4.12c10.41-.12,20.45-1.84,30.12-5.18,16.02-19.19,33.95-32.98,60.36-34.83,9.18-.64,26.18-1.08,29.65,8.12,5.28,2.4,3.64,6.27-2,6l-5.23,2.84c-37.58-8.84-71.74,14.52-79.94,51.72l-4.83,3.44c-3,6.94-7.69,3.19-6-4-3.53-1.11-4.28-4.35-2.23-9.72l-20.52,4.88-3.25-3.16c-4.04,1-7.38-1-10-6-8.76,3.52-26.2,6.27-34,0l-14,4c-3.73,8.92-21.37,12.36-30,10-1.02,3.42-3.02,6.76-6,10-2.93,6.27-20.64,7.71-26,4-3.42.58-3.42-.75,0-4l3.58-6.78c16.89-9.67,34.33-17.59,52.35-23.77-28.57-13.27-50.54-38.47-57.84-69.4-15.78,7.98-32.37,14.22-49.8,14.91,13.09,8.04,27.55,13.69,43.38,16.97,12.91,6.2-22.71,27.36-27.67,28.47l-4-2.39c-4.33-2.37-3.67-6.37,2-12,2.03-1.49,5.19-3.62,6-5.98-16.79-4.19-32.66-14.12-43.95-27.07-1.46-1.68-10.74-14.37-10.05-14.94,1.68-1.37,21.84,2.22,27.08,2.09,14.31-.36,46.74-7.98,56.92-18.11l2-20c1.98-24.72,10.71-45.88,25.17-65.83,2.67-3.69,14.93-18.89,17.85-20.15,6.9-2.98-1.88,11.6-2.55,13.46-5.92,16.52-8.4,29.42-6.3,47.36.28,2.37,1.26,8.68,4.8,7.15,27.32-24.34,50.49-52.18,80.39-73.62,31.83-22.83,70.58-41.64,110.64-40.38-14.84-14.88-38.46-20.17-57.99-27.02-1.93-.68-4.58-.25-4-2.94,38.04-11.65,72.9-12.96,111.78-4.71,2.75.58,4.82,2.35,6.21,2.7Z" style="fill: #0d142d;"/>
  <path d="M40.17,322.04c2.15,4.35.45,9.96-5.1,16.82,7.73-6.55,15.43-9.49,23.1-8.82l4,8c-6.73,3.76-18,11.24-24,16-10.7,6.62-23.55,1.66-20-12,3.8-8.12,5.76-10.96,10-18,5.51-6.2,9.51-6.86,12-2Z" style="fill: #0d142d;"/>
  <path d="M76.17,282.04c5.47,5.28-5.7,14.7-12,12-7.34,2.76-10.96,4.21-12,12,3.16,5.22-6.08,17.66-12,16l-12,2c16.58-27.57,24.01-34.87,50-54-.84,3.32-.87,9.21-2,12Z" style="fill: #0d142c;"/>
  <path d="M18.17,342.04c4.03,11.73,7.97,11.28,20,12-11.23,8.91-22.57,21.14-32,32-2.77,2.2-3.44.87-2-4,4.74-16.57,6.48-23.93,14-40Z" style="fill: #0d142c;"/>
  <path d="M428.17,30.04c1.95.69,3.66,1.1,6,2,4.45,2.65,7.46,7.17,4,12l-3.5,2.9c-5.9-1.21-24.5-7.26-24.5-12.9.56-6.2,6.56-7.54,18-4Z" style="fill: #0d142d;"/>
  <path d="M428.17,30.04c-6.37-.68-12.38,1.27-18,4-2.2,5.03-10.4,4-10-2l2-10c10.77,2.66,16.04,4.47,26,8Z" style="fill: #0d142c;"/>
  <path d="M24.17,512.04c-3.19-11.83-2.15-24.59-2.02-37.02.03-3.35-1.32-8.96,2.02-10.98-.76,15.91.56,32.07,0,48Z" style="fill: #28303e;"/>
  <path d="M114.17,206.04c.88-6.27-2.27-15.29,2-20-.49,6.12,1.96,16.07-2,20Z" style="fill: #28303e;"/>
  <path d="M6.17,386.04c-1.7,1.96-2.87,5.46-5.98,6-1.12-4.03,3.23-7.35,3.98-10l2,4Z" style="fill: #28303e;"/>
  <path d="M466.17,280.04c25.33-15.35,43.34-29.86,65.01-49.99,2.74-2.54,4.97-9.02,8.24-9.67,9.01-1.78,57.83,29,66.79,36.63,60.09,51.19,56.71,119.53,81,189,2.18,21.85,11.54,47.76,13.01,69.02.21,3.06.4,3.54-2.82,2.81-6.86-1.55-15.41-6.63-23.23-8.79-6.03-1.66-18.93-2.43-22.02-3.98-1.56-.78-11.21-14.02-13.96-17.04-6.92-5.39-14.15-10.62-22.47-13.54l-1.53-4.46c-13.37-5.51-28.41-4.33-41.9.1l-2.1-2.1-3.63-4.16c2.69-20.18,16.3-35.56,29.63-49.84-5.81-7.18,10.38-12.19,16.82-13.43,19.9-3.83,37.92,10.01,52.37,21.65-12.43-29.53-46.44-78.01-79.65-44.03l-34.07,31.18c-16.01,17.88-33.81,26.09-53.41,24.62,1.67,10.39,4.06,21.74,11.61,29.55l.33,4.45c7.23,5.27-.76,28.79-8,32-.83,4.06-4,18.67-4,21v30c0,2.47,4.68,18.33,5.92,22.08.72,2.2,4.46,8.59,4.08,8.9-.96.8-19.32,2.86-24.46,4.55-4.13,1.36-13.83,5.45-17.54,7.46l-4.54-.9c-6.01-23.37-15.35-44.73-28.03-64.09l.57-5.02-1.95-4.3c4.81-11.27,7.65-24.18,5.01-36.31-21.16,25.74-52.51,29.24-83.56,30.98-18.64,1.05-37.94-.04-56.38-1.85-11.73-.44-19.67,7.41-26.61,16.01-10.88,13.48-19.68,28.87-26.07,44.85l-4.44.62-5.12-2.01c-3.84-20.37-3.34-41.36,1.5-62.97.6-8.36.43-16.87-3.79-24.21-33.12-59.16-44.94-108.62,10.37-159.01,7.2-6.55,18.76-16.24,15.04.2l3.57,4.93c-1.46,30.78,8.92,62.28,29,85.65-3.93-14.65-5.05-29.19-3.36-43.61l2.79-2.98c2.7-1,5.16-1.23,5.93,1.45,2.63,13.82,6,27.47,10.11,40.95-3.76-54.08,31.73-122.99,93.96-110.41,10.36-.15,16.22,2.69,26.45-.56s20.07-10.22,29.55-15.44c2.62-3.04,6.01-5.26,10-6Z" style="fill: #dfaa7e;"/>
  <path d="M686.17,670.04c8.71-6.29,15.38-14.75,21.63-23.37l14.37-28.63v31c0,22.08-17.71,56.05-18.07,81.96-.06,4.31.74,5.58,2.56.55,3.37-9.35,4.85-20.31,8.12-29.92.72-2.1.45-6.04,3.38-5.58.46,12.89.89,26.15,2.01,39,3.51,40,7.27,50.59-5.95,90.04-8.66,25.82-20.93,50.75-28.06,76.95-3.31.54-2.16-4.87-2.07-7.06.46-10.32,2.58-18.87,2.08-29.95-.11-2.44,1.53-7.43-1.98-6.97-6.71,43.61-10.93,95.24-26.52,136.49-5.27,13.95-6.48,17.3-20.12,23.89-16.15,7.81-59.39,21.2-76.61,21.46-11.73.18-32.29-16.31-41.72-23.88-26.62-21.37-55.31-48.79-81.04-71.96l-7.27-1.14c-34.93-28.2-61.35-61.83-76.74-104.28-12.98-22.02-30.06-41.17-51.24-57.45-3.22-6.8,3.89-9.74,9.94-7.96,45.52,11.04,94.14-6.86,127.62-39.24,4.74-4.06,5.58-.51,6.49,5.5,1.42,9.41-20.02,47.45-28.8,54.57-.2,1.99.46,2.66,2,2,6.53-12.22,13.42-24.36,20.69-36.41,7.71,9.2,16.53,17.15,26.48,23.84l28.75,13.99c26.02,18.42,64.35,37.35,78.02-4.87l8.07-12.55c-4.51-6.2,1.51-22.21,4.62-29.97,1.16-2.88,2.34-5.48,3.72-8.25,12.74-12.44,15.49-24.79,8.23-37.05l1.43-2.72.82-4.67c29.57-1.36,63.37-4.92,85.18-27.33Z" style="fill: #dea982;"/>
  <path d="M400.17,32.04c3.28.83,7.16,1.17,10,2,7.38,2.16,20.75,7.02,28,10,8.1,3.33,19.54,9.28,27.35,13.65,25.35,14.19,45.79,33.44,65.66,54.34l.99-19.99c4.87-1.99,7.12,3.19,8.48,7.38,2.63,8.15,4.14,17.57,4.8,26.14,1.05,13.48,2.1,35.09-7.28,44.48-1.85-5.01-3.1,2.21-3.49,3.5-7.53,25.18-20.32,59.45-40.51,76.5-4.45,1.63-9.11,4.29-14,8-3.63,4.3-7.63,8.54-12,12-3.05,1.75-5.31,1.78-4-2,6.79-6.04,17.76-31.13,20.52-40.48,12.82-43.47,6.9-83.07-16.52-121.52-1.58.33-1.58,2.33,0,6,1,8.16,7.38,19.11,10,28,2.59,3.33,4.13,7.93,4,12,1.89,30.71,4.47,50.54-6.5,80.5-5.71,15.61-27.1,54.45-44.5,57.54-3.51.62-2.73-.23-3.44-2.61-3.09-10.36-3.46-24.89-6.46-35.53-8.35-29.62-31.8-57.19-57.1-73.9-5.83-1.41-11.6-3.8-16-8-34.08-14-63.78-13.92-98.53-1.53-22.29,7.94-58.86,32.79-82.2,19.27-2.4-1.39-5.36-3.74-5.35-6.74.02-4.74,19.74-20.55,24.09-25,88.26-66.67,241.05-67.26,268.48,68.55,18.49-55.33-1.63-114.89-54.03-142.84l-2.45-5.72c-3.61-13.12-20.6-13.69-30.68-20.32-4.01-2.64-6.62-6.76-10.67-9.33-10.79-6.87-23.04-12.43-32.66-20.33,26.13-3.38,50.6-.47,76,5.98Z" style="fill: #28303e;"/>
  <path d="M76.17,282.04c4.58-2.24,31.86-18.83,31.97-21,.12-2.39-24.41-7.55-28.7-9.26-9.21-3.66-20.2-10.71-27.26-17.72,14.66.67,26.61.33,40.52-4.5,3.48-1.21,24.53-12.54,25.47-11.51.31.34-.31,6.02.46,8.53,5.7,18.61,18.45,38.18,33.71,50.3,9.45,7.5,21.38,11.26,29.84,19.14-23.7,4.96-45.65,15.65-66,28.02-.26,1.01-.6,2.12-1.44,2.81-1.51,1.24-5.13,3.21-7.07,4.19-.43.22,6.88-5.4,8.51-3,8.4-3.24,17.35-3.03,26-4l4.28-3.15c18.45-.91,37.17-3.11,54.8-7.91,4.79.26,3.13,3.42.93,7.07-2.26,3.13-2.59,5.27-4,8l-8,12c-25.31,30.19-43.43,56.51-73.96,83.04-10.33,8.98-22.3,16.23-32.03,25.97,2.62,2.42,8.15-1.99,10.59-3.41,30.89-17.96,52.64-44.67,77.38-69.6.02,5.82-3.45,11.8-6.32,16.66-15.55,26.29-38.27,46.98-59.65,68.35,1.44,2.88,4.91-.32,6.62-1.38,20.12-12.43,36.54-35.61,51.35-53.63-.91,7.01,1.85,17.68-1.01,23.98-1.17,2.58-6.69,6.05-8.94,9.06-17.09,22.87-40.26,59.75-43.83,88.2-.4,3.2-1.59,8.81,1.79,10.76,5.93,3.33,4.9,12.76-2,14-.77-.96-3.22-1.91-4.85-4.07-4.25-5.62-28.72-39.62-29.18-43.07-1.43-10.54,17.59-37.43,16.03-38.85-1.19-1.08-22.11,9.83-25.35,11.63-4.62,2.57-30.29,20.73-32.64,18.34-1.78-1.81,3.41-43.98,4.56-50.43,8.5-47.81,34.48-94.25,63.41-132.59,2.47-6.13-12.46.77-14.49,1.52-12.58,4.65-18.68,9.26-29.49,15.51s-22.06,12.04-31.98,20c-1.77-2.07,11.55-24.36,13.98-28,3.38-5.05,8.04-11.48,12-16-1.6-6.66,6.28-10.65,12-12,3.58-3.82,9.97-6.96,12-12Z" style="fill: #28303e;"/>
  <path d="M522.17,614.04c-.68,1.64-1.88,2.93-3.69,3.05-56.65,3.92-36.23,67.12-8.88,95.06-5.75,31.53.34,52.46,37.11,49.36,21.08-1.78,32.93-18.56,28.37-39.13l3.1-4.34,2-4c4.19-.05,6.4,3.27,6.62,9.96,5.31-2.93,8.43-2.25,9.38,2.04l1.97,4.61c-9.09,12.35-15.1,26.36-18.03,42.03-5.04,7.11-4.35,9.56,2.06,7.35-4.41,14.41-8.49,32.77-24.05,38.95-26.57,10.56-42.45-6.7-63.91-18-20.78-10.94-42.21-15.68-53.05-38.92-5.61,13.41-12.37,22.68-21,33.97-2.81,2.65-3.84,1.53-2-2,12.15-16.21,21.58-40.31,25.98-60-30.03,32.88-72.21,49.34-116.97,45.99-7.5-.56-15.37-4.32-23-3,18.16,17.48,39.01,32.28,51.08,54.92,7.28,13.66,12.58,29.65,20.56,43.44,17.11,29.6,37.55,46.32,62.35,68.65-3.99.84,2.08,5.08,3,6,12.33,12.33,24.67,24.66,36.99,37.01l-2.96.96c-37.67-25.46-85.43-44.65-119.99-74.02-35.09-29.82-48.9-94.54-75.02-132.99l.97-2.96c12.78,11.15,27.66,23.25,42.42,31.58,1.76.99,5.06,4.37,6.58,1.42-30.42-28.09-66.57-47.5-82.03-87.97-1.75-4.59-13.44-39.5-11.95-41.03,1.64-1.69,8.16,4.87,11.4,5.58,5.82,1.28,13.87-1.09,18.62,1.38,4.3,2.23,5.88,9.75,7.98,13.02-2.12,29.35,8.98,49.55,38.83,55.94,10.59,2.27,30.01,4.77,37.17,2.06,64.35,9.88,120.58-40.48,122.09-105.08.24-10.4-6.35-22.07.98-32.84,6.87-10.08,37.51-20.31,47.75-13.88,5.53,3.48,1.11,5.44,1.17,5.8Z" style="fill: #a57458;"/>
  <path d="M630.17,1034.04l1.35,6.25c-3.92,7.92-7.88,15.84-11.93,23.72-17.76,34.54-41.08,75.53-79.42,88.03-35.48,3.61-73.81-3.75-96.83-34.17-12.29-16.24-11.67-40.24-16.14-59.86-8.04-35.27-21.6-70.48-35.03-103.96,3.09-.77,4.36,1.23,6.58,2.4,27.63,14.51,58.63,33.99,85.26,50.74,17.17,10.8,57.77,44.25,75.36,44.69,18.59.47,52.89-10.89,70.8-17.85Z" style="fill: #a57558;"/>
  <path d="M236.17,306.04c3.78-1.38,26.53-7.44,27.99-5.99.76.75-1.51,11.81-1.99,13.99,3.41,4.81,2.86,11.34-4,12-.06-5.17,1.72-8.07-4.62-3.62-17.31,12.13-43.16,47.27-45.39,68.6-1.92,18.3,8,49.62,15.04,67,3.9,9.61,15.54,26.47,16.86,35.14,4.04,26.45-11.19,55.91.11,80.89,3.02,2.85,3.14,7.21.36,13.07,15.09-21.01,43.24-45.1,70.81-40.62,1.86.3,3.12,2.22,3.92,3.9,15.61-6.25,32.47-9.07,50.6-8.45,10.86-3.62,21.45-4.4,31.76-2.35,5.38-4.28,11.99-7.4,19.84-9.35,5.85-4.23,11.43-6.29,16.72-6.2,7.26,6.46,11.99,16.14,16.35,24.65l15.65,45.35c-1.99,1.08-7.02,8.6-10.73,7.82-1.19-.25-15.67-12.2-19.43-14.66-4.78-3.13-11.84-5.05-15.77-8.23-4.62-3.72-5.61-9.51-9.99-14.01-31.53-32.43-96.92-14.87-115.52,24.65-3.55,7.55-3.28,15.23-5.59,20.41-.84,1.88-25.04,29.37-27.08,30.92-4.53,3.43-13.22,7.27-18.88,7.28-4.37,0-17.65-3.87-20.49-6.7-3.04-3.03-17.61-46.45-18.32-52.68-1.28-11.13-.83-28.4-.29-39.89.43-9.16,5.18-27.64,3.74-35.42-1.62-8.73-23.82-41.28-29.18-54.96-15.56-39.77,1.18-82.7,20.76-118.3,8.95-16.26,15.18-24.78,32.77-32.23-1.33-5.03,0-5.7,4-2Z" style="fill: #a67457;"/>
  <path d="M706.17,162.04c-17.01.35-30.94,1.68-47.04,7.96-3.9,1.52-17.53,5.55-12.96,12.04l-1.44,4.53c-3.47.44-29.16,12.51-26.81,12.94,36.46,6.7,51.62,10.22,83.59,31.23,14.69,9.65,28.47,20.44,41.11,32.68l1.55,6.62-32-7.98c2.99,5.15,26,36.64,26,38.98v50c0,5.77-2.44,21.14-4,27l-4.07-1.61c-16.21-25.52-42.16-46.45-66.74-64.21l-7.19-8.17c-4.79-9.54-14.19-19.97-19.63-29.37-.87-1.5-3.66-5.3-2.36-6.62,3-3.05,45.29,21.31,50.65,26.33,9.27,4.15,25.76,26.69,32.36,29.65.87.39,3.28.51,2.97-.98-21.29-25.52-45.79-48.57-77.47-60.53-6.25-2.36-15.4-2.96-20.4-5.6-14.06-7.43-31.81-25.41-49.46-34.54-4.66-2.41-25.85-9.19-26.65-10.37-2.74-4.06,3.78-7.51,3.99-7.97,23.23-29.63,63.72-44.05,100.64-48.87,9.22-1.2,53.38-4.59,55.34,3.58.25,1.04.18,2.16.02,3.29Z" style="fill: #29313e;"/>
  <path d="M212.15,704.04c-14.15-13.3-49.26-43.63-69.47-34.47-2.18.99-6.48,4.48-4.5,6.47.46.46,7.72-2.46,12.96-2.05,9.7.76,20.91,7.83,28.81,13.27,4.74,3.26,28.31,21.43,27.91,25.42-.34,3.34-4.79,10.54-5.48,16.57-1.78,15.57,3.11,30.3,17.07,38.51,4.96,2.92,23.71,10.08,26.71,2.3-27.16-3.86-38.44-15-36-43.02.75-8.56.76-14.05,8.01-8.01,23.64,19.69,40.99,39.75,54.36,67.64,1.53,3.19,7.5,16.32,7.67,18.54.93,12.24-27.64,21.85-37.49,15.28-54.23-37.5-98.74-57.17-111.93-128.07-5.09-27.34-5.12-64.02,33.44-53.43,34.49,9.47,35.96,35.98,47.93,65.04Z" style="fill: #a47257;"/>
  <path d="M736.08,526.13c.91,1.14,2.68,17.94,1.78,20.6-1.52,4.47-12.41,5.97-14.81,13.19-1.7,33.47-3.51,67.04-26.93,93.07-34.96,38.87-109.6,41.51-141.95-1.95-8.81-11.83-19.17-47.34-34.89-49.11-15.11-1.7-31.26,1.75-43.78,10.43-17.2,11.93-8.74,28.91-9.19,44.71-2.61,90.86-115.32,134.62-174.1,61.93-7.14-8.83-18.12-34.56-27.45-36.55-13.5-2.88-19.32,5.44-20.59-15.44-.94-15.52,2.22-10.3,12.09-15.88,18.93-10.7,28.28-32.06,46.07-45.93,31.61-24.62,87.81-33.86,124.54-16.88,6.45,2.98,27.42,19.64,29.97,19.4,2.71-.25,14.5-9.06,18.89-11.12,10.1-4.75,26.35-10.35,37.4-10.7,5.1-.16,14.05,2.76,17,1.25,2.33-1.2,14.27-26.74,19.19-32.95,27.86-35.17,85.38-50.6,127.87-38.19,9.5,2.77,23.77,11.12,32.2,11.96,4.94.49,24.78-4.2,26.68-1.83Z" style="fill: #b85020;"/>
  <path d="M112.17,538.04c6.08-34.87,29.62-67.6,47.56-97.39.84-1.4,1.89-6.3,4.44-2.61.51.74,2.11,13.65,3.44,17.57,4.15,12.27,10.6,25.73,16.95,37.05,7.83,13.96,14.66,13.97,13.61,32.39-1.51,26.42-6.79,43.13-1.09,71.09,1.35,6.63,14.54,40.25,13.09,41.9-1.21,1.37-23.55-12.14-34.89-9.97-4.92.94-5.52,6.13-11.82,1.74l-32.95-45.19c-1.61-5.22,1.4-11.09,3.32-15.93l26.34-50.65c-17.32,13.62-30.27,36.47-34,58-16.18-9.95-1.58-31.03,6.35-42.66,5.62-8.23,13.35-14.86,19.67-22.33,1.91-2.26,4.84-3.25,3.98-7-11.12,10.02-23.54,20.63-31.64,33.34-2.76,4.33-7.5,17.7-10.33,19.68-3.31,2.32-3.49-4.38-4.01-5.03,2.23-4.47,1.26-9.75,2-14Z" style="fill: #4c5053;"/>
  <path d="M522.17,614.04c.45,2.57,21.91,36.96,25.72,45.28,4.09,8.94,7.16,23.36,11.42,30.58,6.25,10.59,14.44,11.33,18.86,28.14,11.14,42.31-31.43,59.16-64.53,39.53-6.35-3.77-8.74-11.45-9.49-18.51-.75-7.07,2.44-22.77,1.73-25.63-.77-3.13-9.87-9.66-12.6-13.51-11.45-16.1-19.64-57.16-8.04-73.81,6.47-9.28,26.14-16.43,36.93-12.07Z" style="fill: #dea97f;"/>
  <path d="M540.17,1152.04c-4.94-1.86,1.85-2.88,3.37-3.61,41.89-20.13,66.73-74.67,86.63-114.39,9.51-3.7,18.17-5.66,26.04-12.96,14.45-13.41,19.82-48.34,24.56-67.46.5-2.02.57-6.05,3.39-5.57-3.07,28.42,12.14,63.51,7.91,90.89-1.85,11.98-17.81,36.38-25.94,46.06-33.28,39.6-74.58,61.82-125.95,67.05Z" style="fill: #dba87e;"/>
  <path d="M298.17,1134.04c24.55-39.68,54.39-93.85,84.97-128.03,1.64-1.84,11.12-12.21,13.02-9.97,1.1,1.29,8.38,29.68,7.98,32.83-1.42,11.22-11.77,35.02-15,49.13-4.58,20.03-8.36,42.25-10.97,62.03.3-4.64.15-6.91-5.04-7.97-24.55-5.03-49.88,4.74-74.96,1.97Z" style="fill: #393943;"/>
  <path d="M570.17,468.04l-.45,3.01c9.08-3.93,30.26-7.6,44.45-1.01,11.84,2.26,16.36,9.62,24,18-46.44-25.62-95.52,1.29-101.77,53.23-.85,7.08.49,14.22-.7,21.3-.46,2.72-7.17,19.15-8.83,19.56-13.63,3.38-17.06-9.59-19.73-20.06-4.37-17.15-2.77-33.52-2.95-51.05-.03-3.35,1.31-8.97-2.02-10.98,2.06-10.1,7.85-20.92,8-32,2.81-3.13,7.4-4.96,13.79-5.5,23.22-12.35,44.82-28.33,64.79-47.95l7.42-.55c-9.12,18.61-24.75,31.65-26,54Z" style="fill: #a37156;"/>
  <path d="M734.17,378.04c-.3,1.12.92,9.85-3.97,5.99-.6-.47-5.62-10.15-8.08-12.94-6-6.78-20.1-19.93-27.66-24.34-2.76-1.61-4.61-3.48-8.29-2.69l25.03,23.95c9.01,14.05,22.1,20.47,20.72,38.8-1.48,19.65-8.65,41.63-10.3,61.7l-7.44,15.53c-1.99-9.05-11.81-16.19-15.04-23.97-3.05-7.35-3.46-17.81-5.99-26.01-5.45-17.67-13.62-35.15-16.78-53.22-4.74-27.1-7.35-51.16-20.22-76.78,14.11,6.17,28.46,18.55,40.03,28.97,9.03,8.13,22.34,20.89,29.92,30.08,3.32,4.03,8.38,9.36,8.05,14.95Z" style="fill: #4c5054;"/>
  <path d="M762.17,494.04c2.25-.51,6.76,1.28,7.99-.99-6.16-6.07-14.62-3.39-19.04,2.95l-12.93,24.03c-.1-7.48-15.88-22.99-15.62-28.61.34-7.26,10.37-21.57,16.85-25.12,29.61-16.22,44.29,40.44,47.82,59.66,9.48,51.56-16.21,95.02-28.27,143.88-.7,9.36-26.41,20.84-30.81,16.2-3.22-3.39,3.15-32.46,3.99-39.01.57-4.47-.83-9.93-.12-13.8.26-1.39,5.85-2.16,8.13-3.2,35.67-30.21,39.92-87.14,21.11-128.53l.89-7.47Z" style="fill: #dda87d;"/>
  <path d="M583.92,1219.8c-1.58,2.27-37.4,7.99-42.74,8.24-4.62.22-35.47-1.75-37.13-2.86-4.78-3.2-.06-13.51.12-18.13.53-13.73.92-27.34,1.99-41.01,11.49-.59,23.58.84,35,0,10.95-.8,22.63-5.19,33.11-5.17,3.08,2.34,11.68,56,9.64,58.93Z" style="fill: #224750;"/>
  <path d="M550.17,204.04c3.65-7.77,8.62-17.72,11.53-25.47,5.61-14.99,5.27-34.27,13.65-46.35,11.19-16.14,42.05-39.64,61.81-42.2,8.78-1.14-4.44,5.47-6.83,7.18-12.55,8.95-24.51,19.94-33.82,32.18-1.99,2.62-17.51,25.61-16.34,26.64,1.04.93,21.28-11.37,25.47-11.51,37.97-13.22,80.08-6.77,112.52,16.53-3.02,1.95-8.31.92-11.99.99-3.11-2.76-8.98-3.67-13.02-3.99-38.81-3.11-81.03,5.52-114.38,25.6-9.86,5.93-18.41,15.27-28.61,20.39Z" style="fill: #4a4f53;"/>
  <path d="M632.15,1134.04c2.41,1.8,18.43,53.94,15.72,57.71-7.41,3.74-53.75,28.97-57.69,24.29l-9.16-58.12c8.22-.07,48.87-25.58,51.14-23.89Z" style="fill: #224750;"/>
  <path d="M646.17,182.04c25.27-4.96,68.73,30.2,83.96,49.04,6.07,7.51,21.41,33.36,24.01,42,2.34,7.78-8.54-1.84-9.97-3.04-9.2-7.68-17.59-16.5-27.34-23.66-32.77-24.07-70.31-46.77-112.66-42.35,2.34-4.13,7.92-6.74,11.96-9.02,5.98-3.38,24.14-11.8,30.04-12.96Z" style="fill: #4b4f54;"/>
  <path d="M502.18,1164.06c.69.94-3.73,18.84-4.01,22.99-.4,5.93,1.25,35.64-.01,36.99-3.14,3.34-62.12-21.97-63.7-29.18-.55-2.5,13.69-47.28,15.78-48.77,2.42-1.73,23.6,10.08,28.9,11.98,4.51,1.62,22.34,5.03,23.04,5.99Z" style="fill: #224751;"/>
  <path d="M532.17,92.04c-2.25-9.71-2.68-19.97-5.35-29.65l-9.66-32.34c49.98,46.27,58.28,124.3,17.46,179.45-1.5,2.03-9.69,13.17-12.45,10.53,8.62-15.55,12.61-32.76,16-49.98,4.73-24.01,5.49-43.87-.91-68.09-1.07-4.06-4.9-9.05-5.09-9.91Z" style="fill: #4c5055;"/>
  <path d="M740.17,630.04c13.42-16.88,19.53-35.73,9.1-56.1-2.19-4.28-14.6-17.66-13.1-19.86.23-.33,5.22-.48,7.03-3.99,2.83-5.51-.05-18.99,1.41-26.59,1.13-5.84,11.95-28.19,17.55-29.45,16.03,32.11,18.42,64.11,7.45,98.45-5.58,17.45-12.3,29.77-29.45,37.55Z" style="fill: #a27155;"/>
  <path d="M654.18,1186.04c3.35-9.72-18.35-51.44-17.72-54.72.45-2.36,29.71-27.41,34.74-33.25,6.64-7.71,10.97-17.74,18.95-24.03-2.09,32.1-9.78,63.64-15.83,95.16-2.81,6.93-14.19,12.09-20.14,16.84Z" style="fill: #254750;"/>
  <path d="M430.16,1190.04c-3,.76-3.28-.68-5.01-1.98-6.07-4.57-27.82-32.57-28.56-39.34-.48-4.35,20.63-42.63,24.58-42.64,1.17,0,9.66,16.53,12.17,19.8,2.44,3.19,14.22,13.53,14.32,15.14.09,1.46-5.78,11.14-7.01,14.5-4.11,11.17-8.05,22.86-10.48,34.53Z" style="fill: #22444e;"/>
  <path d="M638.17,506.02c-27.18,2.01-53.23,12.4-75.83,27.18l-20.15,20.82c-5.43-50.11,60.57-87.07,95.98-48.01Z" style="fill: #f7f7f5;"/>
  <path d="M274.17,702.04c19.11,29.8,38.8,52.29,76,58,1.11,6.05-3.06,3.86-6.92,4-39.56,1.41-73.06-9.33-73.13-55.03,0-3.83-1.83-8.12,4.05-6.97Z" style="fill: #d9a57d;"/>
  <path d="M410.17,576.02c-30.89-5.32-60.83-.76-89.37,11.65-3.52,1.53-17.89,11.15-18.62,10.37-2.69-2.9,15.88-21.49,19.02-23.96,25.09-19.71,66.37-24.01,88.96,1.94Z" style="fill: #e6e6e5;"/>
  <path d="M392.18,1142.04c4.08-30.28,8.27-61.31,18.97-89.99,7.45,13.5,5.13,31.48,8.74,46.56-5.4,6.49-11.02,11.28-15.35,18.82-4.62,8.04-5.83,18.4-12.37,24.61Z" style="fill: #24444f;"/>
  <path d="M600.17,702.04c-1,.3-1.98.5-2.94.41-1.43-.14-17.92-18.02-19.06-20.41-.63-1.74.7-2.4,4-2,32.36,13.89,75.17,10.82,104-10-.08,4.4-3.17,6.44-6.17,8.84-11.72,9.36-36.18,19.44-51.05,20.94-9.38.94-20.42-1.9-28.77,2.23Z" style="fill: #a47358;"/>
  <path d="M582.17,680.04c-.42,2.09-2.33,1.8-4,2l-.59,2.2c10.03,6.39,29.33,25.67,25.47,38.38-1.27,4.18-2.78,5.68-6.87,3.42-3.28-1.61-11.58,4.49-11.98,4-.53-.64-2.42-11.6-4.02-16-6.43-17.68-20.26-30.39-21.98-50,6.87,5.49,15.91,12.53,23.98,16Z" style="fill: #d6a279;"/>
  <path d="M240.15,678.04c-2.21,2.71-54.08-35.79-57.8-39.18-1.38-1.26-6.31-4.8-4.17-6.81,2.27-2.14,50.91,20.23,58.02,22.96,1.53,1.56,4.7,22.12,3.95,23.03Z" style="fill: #b15025;"/>
  <path d="M732.18,630.04c1.65-11.17-4.4-22.15-4.19-33,.2-9.84,5.27-20.74,4.19-31,23.16,14.77,20,48.19,0,64Z" style="fill: #d9a87f;"/>
  <path d="M238.15,724.04c-10.22-2.5-36.29-59.27-33.97-62,.91-1.07,21.78,13.43,22.96,16.02l11.01,45.97Z" style="fill: #515258;"/>
  <path d="M226.17,300.04c.23,0,1.77-2.28,4.55-.18,2.2,1.66,2.42,5.21,5.45,6.18-.9.33-2.51,1.37-4,2-5.88.33-12.45-1-18.13.88-2,.66-10.53,9.27-11.87,11.12.8-6.5-1.91-3.34-5.67-2.68-18.19,3.16-36.04,4.63-54.33,6.68-3.18-6.72.08-7.61,6-10l3.31,1.55c24.4-3.44,55.97-10.34,74.69-15.55Z" style="fill: #10152c;"/>
  <path d="M732.17,520.02c-3.03-.53-9.73,1.11-11.71-.29-2.3-1.62-15.5-34.06-16.28-39.7,12.71,10.21,18.42,27.07,27.98,39.98Z" style="fill: #9f5939;"/>
  <path d="M480.17,258.04c2.96-3.5,12.84-20.66,16-17.98.88.75-6.97,7.96-2,9.98-4.02,3.39-5.98,9.21-14,8Z" style="fill: #10152c;"/>
  <path d="M716.16,522.03c-6.94,6.43-9.74-15.9-9.98-19.98l9.98,19.98Z" style="fill: #85675c;"/>
  <path d="M464.17,268.04l4,2c-.66.53-1.16,1.44-2,2-5.92,3.99-8.78.49-5.72-3.78.53-.74,3.34.12,3.72-.22Z" style="fill: #10152c;"/>
  <path d="M190.17,340.04c.93-4.58,3.9-9.52,8-12-.82,1.58-.77,4.24-2.24,6.72-1.89,3.18-4.5,3.78-5.76,5.28Z" style="fill: #10152c;"/>
  <path d="M464.17,280.04h2c-3.57,2.16-5.79,3.68-10,6,1.63-3.43,4.03-5.98,8-6Z" style="fill: #10152c;"/>
  <path d="M745.69,1302.42c24.55-3.74,41.88,24.33,31.58,45.72-10.7,22.22-41.03,21.76-54.02,1.81-12.36-18.99.6-44.21,22.44-47.53Z" style="fill: #121225;"/>
  <path d="M216.17,194.04c2.68,2.91,1.72,4.55-.96,6.61,75.86-35.3,181.18-11.94,202.96,77.39.23,1.54,3.21,3.72,2,8-3.16,2.38-4.41.41-6.02-2.48l.02,6.48c-.44.75.5,3.38,0,4-1.34,1.61-12.25-7.84-15.37-9.62s-9.78-5.49-12.62-6.38c-8.24-3.2-12.91-7.86-14-14-2.59-3.09-6.57-5.47-11.94-7.12l-.06-2.88c-24.69-9.13-51.86-3.35-71.84,13.16-5.94,4.91-11.44,14.63-16.72,17.28-7.76,3.88-24.51,5.05-33.44,5.56-7.01,2.39-15.38,3.95-22,0-63.64-3.41-100.74-53.96-89.1-116.1,1.97-10.5,6.21-25.16,12.11-33.89.36,34.63,11.9,63.63,51.77,59.76,8.6-.83,16.66-4.82,25.22-5.77Z" style="fill: #28303e;"/>
  <path d="M398.17,76.04c34.26,16.39,61.21,50.89,65.99,88.99,2.81,22.44-.18,53.28-11,73-6.86-40.98-23.33-77.84-59.16-100.83-63.12-40.5-140.68-18.25-200.42,17.25-1.83,1.09-6.15,5.99-7.42,1.58,52.48-53.75,131.83-118.36,212-80Z" style="fill: #4a4f53;"/>
  <path d="M358.17,260.04c3.53-4.43,11.62.08,14,4,4.73,2.59,11.21,9.63,15.97,13.01l-1.97.99c-5.02-1.57-11.06-1.27-16-2-5-1.58-9.67-1.58-14,0-13.21.4-23.2,4.27-34,12-1,1.5-.76,3.11.3,4.79-17.82,15.81-32.61,37.93-36.2,61.77l-4.1,2.44,4,2.25c.99,7.73,1.94,28.06-4,31.75,8.02-3.83,6.63,10.75.22,9.53-7.89-1.5-16.26-30.42-17.94-38.94-2.51-12.73-5.74-34.66,3.71-43.59,8.41-44.32,45.9-69.93,90-58Z" style="fill: #4c5155;"/>
  <path d="M418.17,278.04c-9.01-17.66-16.96-35.58-30.97-50.03-37.19-38.35-95.04-46.63-145.03-32.97-15.29,4.18-29.16,11.76-44,16.98l18-17.98c84.64-56.48,186.53-18.58,202,84Z" style="fill: #4a4f53;"/>
  <path d="M342.17,294.04l14.73.64c6.24-5.45,21.54-3.37,27.27,3.36,4.67.64,9.57,2.59,14.64,2.43l1.36,1.57c-30.89.44-53.83,9.6-70.84,36.16-18.18,28.39-24.35,63.24-15.18,95.84-13.03-14.58-16.51-36.05-20.25-54.73-.67-3.33-.79-6.98-3.73-9.27-7.31-11.32.95-32.89,6.82-44.94,5.26-10.79,18.8-31.99,31.18-31.06,2.6-.68,10.61-.19,14,0Z" style="fill: #a67459;"/>
  <path d="M322.17,288.04c-1.13,4.58,2.58,4.47,6,6-1.73.45-12.98,11.57-15.03,13.97-15.47,18.01-21.79,38.56-22.97,62.03-1.07,21.34,2.61,39.59,7.98,60-27.68-23.59-44.17-67.77-39.98-104,.28-2.39,3.4-9.26,4-12,.84,2.89,3.07,4.02,6,4-5.15,27.17.04,56.82,15.01,79.99,3.34-1.64-1.01-5.9-1.01-6.99v-34c0-21.94,22.26-56.3,40-69Z" style="fill: #10152c;"/>
  <path d="M414.17,290.04c-19.85-34.06-47.7-61.03-84.03-76.97-6.39-2.8-15.97-3.13-19.97-9.01,32.38,4.26,61.04,22.5,83.03,45.95l26.97,36.03c-.75,2.66-5.61,3.34-6,4Z" style="fill: #10152c;"/>
  <path d="M226.17,300.04c1.21,5.99-2.97,3.45-6.39,4.51-19.64,6.13-44.02,12.96-64.6,13.57-3.78.11-8.18,1.69-7.01-4.09,9.37-3.78,19.69-5.7,30-10l14-4c12.27-1.62,21.55-.03,34,0Z" style="fill: #28303e;"/>
  <path d="M342.17,294.04c3.1-.57,15.01.84,16.01,0,.23-.19.19-5.77-.02-5.98-1.52-1.53-8.72,2.15-10.79,1.71-2.32-.49-4.29-4.72-3.19-5.71,2.13-1.93,29.59-.62,34.51.48,2.16.48,17.86,5.32,15.49,7.5-.88.8-15.13-2.61-10,6.02-13.49-1.84-28.97-3.25-42-4Z" style="fill: #10152c;"/>
  <path d="M468.17,106.04c.16,1.96-.24,4.07,0,6l-14.02-22.98c1.24-2.3,5.24,3.12,5.98,4.02,3.29,4.02,5.38,8.6,8.04,12.96Z" style="fill: #10152c;"/>
  <path d="M116.17,328.04c-5.42,2.09-12.91,9.89-20,9.98,4.99-6.24,13.32-9.92,20-13.98v4Z" style="fill: #10152c;"/>
  <path d="M238.17,290.04c-5.2,4.46-18.66,7.16-22,0,6.88.37,15.13.39,22,0Z" style="fill: #10152c;"/>
  <path d="M372.17,264.04c-3.86-2.11-9.85-2.88-14-4l2-6c5.02,1.86,10.49,4.92,13.97,9.01l-1.97.99Z" style="fill: #10152c;"/>
  <path d="M364.17,178.04c-6.59.64-12.99-1.85-16-8,6.83,2.81,9.6,3.77,16,8Z" style="fill: #10152c;"/>
  <path d="M482.17,152.04c-3.03-2.99-2.83-8.04-4-12,3.25,1.03,5.33,6.21,5.49,9.41.08,1.6-1.5,2.44-1.49,2.59Z" style="fill: #10152c;"/>
  <path d="M192.17,300.04l-14,4c6.99-2.92,5.4-2.87,14-4Z" style="fill: #10152c;"/>
  <path d="M370.17,276.04c-4.66.1-9.35-.14-14,0l1.3-1.62c4.96-2.71,9.85,1.21,12.7,1.62Z" style="fill: #10152c;"/>
  <path d="M64.17,294.04c-3.8,4.06-8.9,8.46-12,12-6.48-8.17,3.66-13.84,12-12Z" style="fill: #0d142d;"/>
  <path d="M434.17,524.04c-6.3,7.69-24.35,14.01-34,16.02l10,9.96c-7.81-1.35-12.32-7.85-21.07-8.09-7.01-.19-16.54,3.42-23.93,4.1-32.77,3.05-43.66-2.4-66.96,25.04-3.41,4.02-5.28,9.18-9.05,12.95-2.9-1.54.01-5.18.92-7.08,5.3-11.03,14.79-17.45,22.08-26.9-32.19-2.69-58.39,22.85-74.02,47.97-3.43.44-2.25-7.06-2-9,.63-4.91,2.5-10.25,4.02-14.99,5.43-16.93,28.58-57.25,45.58-63.42,11.77-4.27,17.23-.57,27.33-.49,40.73.36,91.03,4.92,120.18-28.01,1.42-1.61,3.18-6.39,3.9-6.07,9.76,4.35,3.81,39.69-2.99,47.99Z" style="fill: #0c122b;"/>
  <path d="M510.17,468.04c-10.17-2.25-17.77-32.41-15.98-42,15.27,16.25,40.99-8.17,54.02-18.97,14.77-12.23,43.89-46.55,62.95-45.16,26.09,1.9,59.07,46.65,60.99,72.12-19-17.42-44.71-40.76-71.55-24.48-2.34,1.42-3.32,3.67-4.44,4.48-17.55,12.61-33.86,29.74-51.34,41.66-9.1,6.2-23.47,14.82-34.66,12.34Z" style="fill: #0c122d;"/>
  <path d="M630.17,348.02l-27.47-11.52c-62.95-10.55-104.48,52.64-158.6,70.46-31.77,10.47-67.68,9.24-99.92,19.05l17.11-7.87c28.62-7.98,59.04-8.16,86.86-19.15,55.95-22.1,119.25-107.63,182.03-50.99Z" style="fill: #191420;"/>
  <path d="M584.16,308.06c.47,3.48-4.54,1.9-6.97,1.99-5.27.2-10.54-.42-15.8.22-57.58,6.99-98,67.67-159.22,67.76l31.03-9.95c51.66-17.85,90.75-73.54,150.95-60.02Z" style="fill: #22181f;"/>
  <path d="M614.17,470.04c-26.45-5.04-50.91,1.66-67.96,23.04l-16.02,28.95c.67-22.42,19-46.59,39.98-53.99,13.12-4.63,32.11-6.47,44,2Z" style="fill: #261b25;"/>
  <path d="M446.18,520.04c5.06-12.63,7.5-25.26,6.01-39.02-1.3-11.98-8.69-21.79-12.01-32.98,21.18,16.94,28.12,52.98,6,72Z" style="fill: #221a21;"/>
  <path d="M494.15,470.04c-16.62-11.48-21.49-35.14-15.96-53.99l2.88,22.09c2.44,5.79,3.7,12.09,6.13,17.87,2.16,5.14,6.04,8.83,6.95,14.03Z" style="fill: #2c1e22;"/>
  <path d="M676.16,760.03c-1,.93-10.72-1.48-14.09.91-1.15.81-9.5,19.86-13.07,24.93-32.86,46.65-140.83,82.88-195.64,73.97-8.99-1.46-26.14-9.7-32.24-9.63-5.42.06-12.88,9.95-14.95,7.82-4.24-4.36,15.77-23.39,21.99-17.98.7.6-2.93,4.75-2.02,5.97,1.02,1.36,28.88,7.64,33.03,8.01,45.23,3.96,141.82-29.34,175.02-60.96,3.78-3.6,28.03-33.56,21.99-37.02-1.63-.94-9.89,1.7-4.01-3,11.24-8.98,27.72,3.53,23.99,6.98Z" style="fill: #141227;"/>
  <path d="M578.17,682.04c7.93,4.47,16.98,12.3,22,20,16.51,25.36-1.21,28.09-9.01,45.99-3.96,9.1-5.93,22.01-8.99,32.01-5.37,5.58-9.85,10.55-17.22,13.78-31.07,13.6-38.63-11.88-64.68-16.88-17.2-3.3-42.29,6.63-45.99-18.01-3.18-21.15,2.44-67.51,31.88-41.88-6.49,1.73-17.2-8.41-21.67.32-4.21,8.24-6.33,35.94-2.81,44.16,6.2,14.48,17.98,4.48,27.49,4.49,8.82,0,24.5,7.17,32.39,11.63,13.43,7.58,13.74,15.23,33.14,11.91,24.77-4.23,23.11-30.37,32.03-47.96,2.82-5.57,6.38-9.54,9.44-15.56,1-1.97,3.84-2.64,3.85-6.91.01-12.43-17.98-29.43-27.84-36.1.5-2.03,4.15-.77,5.99-.99Z" style="fill: #131225;"/>
  <path d="M598.17,890.04l-.98,2.7c-12.65,2.58-25.32,6.34-36.63,12.92l-2.39-1.62c-13.76-5.61-28.09-11.3-37.99-23.01,6.92-.9,13.3-3.28,19.99-4.99,28.34-2.04,58.73-13.06,78.07-34.72l1.93.72c-.9,16.96-10.62,35.74-22,48Z" style="fill: #a47359;"/>
  <path d="M620.17,716.04c-4.59-2.33-14.65-7.14-13.01-13.99,14.2,9.05,30.93,18.23,48.02,19.98,12.25,1.25,19.25-2.85,30.87,5.13,13.23,9.09,16.29,33.52,9.15,46.89-2.82,5.28-5.73-5.76-7.02-10.02,3.77-30.27-16.94-34.05-41.27-35.41-9.87-1.64-19.31-5.77-26.73-12.59Z" style="fill: #a4765d;"/>
  <path d="M688.17,764.04c-3.98-13.17-2.47-25.48-19.49-29.51-16.55-3.92-37.53-1.46-48.51-18.49,5.31,2.7,16.35,7.58,21.9,9.1,18.19,4.95,43.36-2.53,47.62,22.37.79,4.61,2.09,12.84-1.52,16.54Z" style="fill: #201620;"/>
  <path d="M620.17,842.04c-5.64,3.57-7.79,9.42-13.04,13.96-13.79,11.94-39.2,18.87-56.97,21.05-3.01.37-7.95,3.01-9.99-1.01,28.69-7.33,57.7-16.32,79.01-37.99,1.72-.1,1.06,2.65.99,3.99Z" style="fill: #1f1822;"/>
  <path d="M598.17,890.04c4.8-.09,11.77,1.28,16.42,2.6,2.06.59,6.04.49,5.57,3.38-22.47-2.02-41.84,2.8-61.34,13.67-4.57,2.55-11.1,9.16-13.68,10.33-.86.39-3.29.51-2.97-.98,5.36-4.98,9.84-10.9,15.99-15.01,9.59-6.4,28.52-13.79,40-14Z" style="fill: #20181c;"/>
  <path d="M420.17,796.04c-8.73,11.41-26.4,26.76-30.08,38.9-3.15,10.41-.3,19.26,2.62,29.55.38,1.33,3.81,7.01-.55,4.56-7.28-11.26-10.61-25.86-7.06-39.08,2.61-9.74,25.02-25.2,33.07-35.94l2,2Z" style="fill: #2f1f21;"/>
  <path d="M510.15,1120.04c-19.46-24.68-35.54-54.11-37.97-85.99l37.97,85.99Z" style="fill: #171221;"/>
  <path d="M637.71,518.59c88.3-9.82,97.3,112.21,30.22,146.21-46.49,23.56-101.78,9.16-119.23-42.3-20.75-61.21,35.14-97.92,89.01-103.91Z" style="fill: #151225;"/>
  <path d="M359.67,588.55c40.01-5.14,82.42,3.63,93.52,47.47,24.63,97.24-105.32,155.38-157.87,73.87-37.16-57.64,1.91-113.3,64.34-121.33Z" style="fill: #181323;"/>
  <path d="M741.57,1310.46c35-7.91,44.15,40.76,13.15,47.14-31.47,6.48-37.99-41.52-13.15-47.14Z" style="fill: #b74e1d;"/>
  <path d="M552.17,612.04c-.64-3.67.03-5.01,2-4,23.63,15.86,49.54,20.49,78,18l2.26-4.88c18.79-6.19,27.11-24.98,27.03-43.7l-3.29-37.42c-2.87-15.87-5.75-19.09,12-13,48.17,16.52,44.71,95.95,8.66,124.66-44.67,35.57-115.76,19.79-126.66-39.66Z" style="fill: #dea97e;"/>
  <path d="M550.17,592.04c1.41-17.85,10.25-31.81,23.97-43.03,5.5-4.5,37.52-22.87,42.03-18.95.66.57-4.21,11.72-4.08,16.9.42,15.89,11.46,31.31,28.07,32.07-12.54,10.92-26,14.55-41.99,17.01-9.91,1.27-19.91,1.6-29.98.98-4.9,4.74-17.11,2.99-18.02-4.98Z" style="fill: #fcfcfa;"/>
  <path d="M632.17,626.04c-28.16,2.51-54.15-2.22-78-18-1.21,1.25-2.33,1.62-2,4-1.33-7.23-2.66-11.65-2-20,14.75,7.27,32.1,2.83,48,4-.47.07-2.05,1.84-4.82,2.09-6.38.59-13.59-.35-20.19-.09-2.43.1-7.44-1.51-6.98,1.98,41.36,8.08,99.22-7.49,91.99-59.98,3.55,19.63,11,32.48,5.1,54.1-4.49,16.44-14.5,27.4-31.1,31.9Z" style="fill: #b27c5d;"/>
  <path d="M618.41,534.29c4.1-5.7,16.12,2.05,10.87,9.86s-15.67-3.17-10.87-9.86Z" style="fill: #e4e5e7;"/>
  <path d="M436.17,706.04c-37.48,57.1-126.95,46.02-146-22-1.07-9.81,10.19-15.43,18.6-11.11,40.11,31.03,98.89,17.19,121.66-27.87,17.46-10.34,14.27,30.6,12.51,40.05-1.34,7.2-3.98,14.14-6.77,20.92Z" style="fill: #dda87d;"/>
  <path d="M436.17,706.04c2.92-9.95,8.18-55.79-1.01-59.99-1.17-.54-12.47,18.1-15.04,20.94-24.13,26.72-66.26,33.8-98.66,18.76-15.45-7.17-16.25-18.63-31.29-1.71-6.38-22.76-6.34-36.45,8-56,4.78,2.32,8.73,8.95,6,14,14.99,19.84,52.24,14.78,73.52,8.52,12.44-3.66,39.78-16.87,44.96-29.04,2.05-4.81,1.13-7.92,1.55-12.48.18-1.9-1.04-6.99,2.94-4.99,8.01,4.01,18.16,22.87,20.46,31.55,6.76,25.47,2.8,48.74-11.44,70.44Z" style="fill: #a67558;"/>
  <path d="M298.17,628.04c11.23-15.32,33.37-26.71,51.58-31.42,4.09-1.06,29.32-5.66,30.41-4.57,1.17,1.17-5.42,19.06,3.1,31.9,5.15,7.76,11.86,7.46,14.9,10.11,2.53,2.21-18.2,9.87-20.43,10.55-25.54,7.7-48.71,7.24-73.57-2.57-3.11-4.11-6.44-8.54-6-14Z" style="fill: #fbfbf8;"/>
  <path d="M395.92,607.79c-4.1,5.7-16.12-2.05-10.87-9.86s15.67,3.17,10.87,9.86Z" style="fill: #e4e5e8;"/>
  <path d="M632.17,626.04c-25.6,6.94-59.16,1.94-78-18,3.83-3.96,11.24,4.02,16.62,6.37,6.1,2.66,12.79,5.21,19.29,6.71l42.08,4.92Z" style="fill: #241b25;"/>
  <path d="M384.17,684.02l25.96-25.02,18.02-28.96c-4.1,23.32-21.17,46.27-43.98,53.97Z" style="fill: #281b21;"/>
</svg>